<svg width="24" height="25" viewBox="0 0 24 25" fill="none" xmlns="http://www.w3.org/2000/svg">
<path d="M21.06 12.3201L20.9 12.1001C20.62 11.7601 20.29 11.4901 19.91 11.2901C19.4 11.0001 18.82 10.8501 18.22 10.8501H5.76995C5.16995 10.8501 4.59995 11.0001 4.07995 11.2901C3.68995 11.5001 3.33995 11.7901 3.04995 12.1501C2.47995 12.8801 2.20995 13.7801 2.29995 14.6801L2.66995 19.3501C2.79995 20.7601 2.96995 22.5001 6.13995 22.5001H17.86C21.03 22.5001 21.19 20.7601 21.33 19.3401L21.7 14.6901C21.79 13.8501 21.57 13.0101 21.06 12.3201ZM14.39 17.8401H9.59995C9.20995 17.8401 8.89995 17.5201 8.89995 17.1401C8.89995 16.7601 9.20995 16.4401 9.59995 16.4401H14.39C14.78 16.4401 15.09 16.7601 15.09 17.1401C15.09 17.5301 14.78 17.8401 14.39 17.8401Z" fill="url(#paint0_linear_107_54)"/>
<path opacity="0.4" d="M3.37988 11.81C3.59988 11.61 3.81988 11.43 4.07988 11.29C4.58988 11 5.16988 10.85 5.76988 10.85H18.2299C18.8299 10.85 19.3999 11 19.9199 11.29C20.1799 11.43 20.4099 11.61 20.6199 11.82V11.29V10.32C20.6199 6.75 19.5299 5.66 15.9599 5.66H13.5799C13.1399 5.66 13.1299 5.65 12.8699 5.31L11.6699 3.7C11.0999 2.96 10.6499 2.5 9.21988 2.5H8.03988C4.46988 2.5 3.37988 3.59 3.37988 7.16V11.3V11.81Z" fill="url(#paint1_linear_107_54)"/>
<defs>
<linearGradient id="paint0_linear_107_54" x1="12.0013" y1="10.8501" x2="12.0013" y2="22.5001" gradientUnits="userSpaceOnUse">
<stop stop-color="#4DCFBB"/>
<stop offset="1" stop-color="#A9DFF0"/>
</linearGradient>
<linearGradient id="paint1_linear_107_54" x1="11.9999" y1="2.5" x2="11.9999" y2="11.82" gradientUnits="userSpaceOnUse">
<stop stop-color="#4DCFBB"/>
<stop offset="1" stop-color="#A9DFF0"/>
</linearGradient>
</defs>
</svg>
